<?xml version="1.0" ?><svg id="Capa_1" style="enable-background:new 0 0 512 512;" version="1.1" viewBox="0 0 512 512" xml:space="preserve" xmlns="http://www.w3.org/2000/svg" xmlns:xlink="http://www.w3.org/1999/xlink"><g><g><rect height="60" style="fill:#96C8EB;" width="88.5" x="64.996" y="176"/><rect height="60" style="fill:#96C8EB;" width="88.5" x="153.5" y="176"/><rect height="60" style="fill:#96C8EB;" width="60" x="322" y="176"/></g><path d="M382.004,236h-60.002v-60.002h60.002v-19.999c0-11.002-9.004-19.999-19.998-19.999H64.996   c-21.998,0-39.998,17.997-39.998,39.998v120.004V336h54.996c9.123-12.147,23.645-19.999,40.006-19.999   c27.613,0,49.996,22.384,49.996,50H352c0-11.259,3.719-21.648,9.996-30.001c9.119-12.147,23.643-19.999,40.004-19.999   c16.357,0,30.879,7.852,40.002,19.999h44.994v-39.998v-36.251c0-12.378-8.992-22.339-19.998-22.502L382.004,236L382.004,236z    M242.002,236H153.5H64.996v-60.002H153.5h88.502V236z" style="fill:#FF9D21;"/><g><path d="M70,366.001c0-11.259,3.719-21.648,9.994-30.001H24.998H10v14.998    c0,8.252,6.75,15.003,14.998,15.003L70,366.001L70,366.001z" style="fill:#FFDAAE;"/><path d="M442.002,336c6.273,8.353,9.998,18.742,9.998,30.001h34.996c8.252,0,15.004-6.751,15.004-15.003    V336h-15.004H442.002z" style="fill:#FFDAAE;"/></g><g><path d="M169.996,366.001c0-27.616-22.383-50-49.996-50c-16.361,0-30.883,7.852-40.006,19.999    C73.719,344.354,70,354.743,70,366.001c0,27.449,22.121,49.731,49.506,49.995l0.494,0.005    C147.613,416.001,169.996,393.614,169.996,366.001L169.996,366.001z M120,346.006c11.041,0,19.992,8.951,19.992,19.995    c0,11.039-8.951,19.995-19.992,19.995c-11.045,0-19.996-8.956-19.996-19.995C100.004,354.957,108.955,346.006,120,346.006z" style="fill:#986E62;"/><path d="M361.996,336c-6.277,8.353-9.996,18.742-9.996,30.001c0,27.612,22.383,50,50,50    c27.611,0,50-22.388,50-50c0-11.259-3.725-21.648-9.998-30.001c-9.123-12.147-23.645-19.999-40.002-19.999    C385.639,316.001,371.115,323.854,361.996,336L361.996,336z M382.004,366.001c0-11.044,8.953-19.995,19.996-19.995    c11.039,0,19.994,8.951,19.994,19.995c0,11.039-8.955,19.995-19.994,19.995C390.957,385.997,382.004,377.041,382.004,366.001z" style="fill:#986E62;"/></g><g><path d="M402,346.006c-11.043,0-19.996,8.951-19.996,19.995c0,11.039,8.953,19.995,19.996,19.995    c11.039,0,19.994-8.956,19.994-19.995C421.994,354.957,413.039,346.006,402,346.006z" style="fill:#FFDAAE;"/><path d="M139.992,366.001c0-11.044-8.951-19.995-19.992-19.995c-11.045,0-19.996,8.951-19.996,19.995    c0,11.039,8.951,19.995,19.996,19.995C131.041,385.997,139.992,377.041,139.992,366.001z" style="fill:#FFDAAE;"/></g></g><g><path d="M502,326h-5.004v-66.249c0-17.677-13.391-32.257-29.852-32.501l-75.141-1.104V156   c0-16.542-13.457-29.999-29.998-29.999H223.5V95.999c0-5.522-4.477-10-10-10c-5.521,0-10,4.478-10,10V126H64.996   c-27.568,0-49.998,22.429-49.998,49.998V326H10c-5.523,0-10,4.478-10,10v14.998c0,13.787,11.215,25.003,24.998,25.003H60.85   c1.924,11.407,7.066,21.73,14.475,29.995h-36.36c-5.521,0-10,4.478-10,10s4.479,10,10,10h80.842c0.064,0,0.129,0.005,0.193,0.005   c29.674,0,54.371-21.661,59.148-50H342.85c4.777,28.339,29.475,50,59.15,50h71.031c5.523,0,10-4.478,10-10c0-5.523-4.477-10-10-10   h-26.359c7.408-8.266,12.555-18.591,14.478-30h25.846c13.787,0,25.004-11.216,25.004-25.003V336C512,330.478,507.522,326,502,326z    M372.004,226h-40.002v-40.002h40.002L372.004,226L372.004,226z M34.998,306.002h6.613c5.523,0,10-4.478,10-10s-4.477-10-10-10   h-6.613V175.999c0-16.541,13.457-29.998,29.998-29.998h297.01c5.514,0,9.998,4.485,9.998,9.999v9.999h-50.002   c-5.522,0-10,4.477-10,10V236c0,5.523,4.478,10,10,10h59.922l84.926,1.248c5.596,0.083,10.146,5.691,10.146,12.503v26.251h-6.613   c-5.522,0-10,4.478-10,10s4.478,10,10,10h6.613V326h-30.322c-10.994-12.265-26.945-19.999-44.674-19.999   s-33.68,7.734-44.674,19.999h-65.322V204.962c0-5.522-4.477-10-10-10c-5.522,0-10,4.478-10,10V336c0,5.522,4.478,10,10,10h63.436   c-1.141,3.217-2.012,6.56-2.592,10.001H179.15c-4.775-28.339-29.475-50-59.15-50c-17.729,0-33.68,7.734-44.674,19.999H34.998   V306.002z M20,350.999V346h43.439c-1.141,3.217-2.012,6.56-2.592,10.001h-35.85C22.289,356.001,20,353.71,20,350.999z    M120.064,405.999c-0.021,0-0.043-0.003-0.064-0.003h-0.193C97.84,405.892,80,387.992,80,365.998c0-22.054,17.943-39.996,40-39.996   c22.047,0,39.984,17.93,39.998,39.973c0,0.01-0.002,0.019-0.002,0.027s0.002,0.017,0.002,0.024   C159.982,388.049,142.08,405.964,120.064,405.999z M362,365.998c0-22.054,17.943-39.996,40-39.996c22.055,0,40,17.942,40,39.996   c0,22.059-17.945,40.004-40,40.004C379.943,406.001,362,388.056,362,365.998z M492,350.999c0,2.712-2.291,5.003-5.004,5.003H461.15   c-0.58-3.441-1.449-6.784-2.59-10.001H492V350.999z" style="fill:#000001;"/><path d="M402,336.006c-16.539,0-29.996,13.454-29.996,29.991c0,16.539,13.457,29.994,29.996,29.994   s29.994-13.455,29.994-29.994C431.994,349.46,418.539,336.006,402,336.006z M402,375.992c-5.512,0-9.996-4.483-9.996-9.994   c0-5.509,4.484-9.991,9.996-9.991s9.994,4.482,9.994,9.991C411.994,371.508,407.512,375.992,402,375.992z" style="fill:#000001;"/><path d="M120,336.006c-16.539,0-29.996,13.454-29.996,29.991c0,16.539,13.457,29.994,29.996,29.994   s29.994-13.455,29.994-29.994C149.994,349.46,136.539,336.006,120,336.006z M120,375.992c-5.512,0-9.996-4.483-9.996-9.994   c0-5.509,4.484-9.991,9.996-9.991s9.994,4.482,9.994,9.991C129.994,371.508,125.512,375.992,120,375.992z" style="fill:#000001;"/><path d="M10.236,405.997H10c-5.523,0-10,4.478-10,10s4.477,10,10,10h0.236c5.521,0,10-4.478,10-10   S15.758,405.997,10.236,405.997z" style="fill:#000001;"/><path d="M502,406.001h-0.236c-5.523,0-10,4.477-10,10c0,5.522,4.477,10,10,10H502c5.522,0,10-4.478,10-10   S507.522,406.001,502,406.001z" style="fill:#000001;"/><path d="M153.5,246h88.502c5.523,0,10-4.477,10-10v-60.002c0-5.523-4.477-10-10-10H153.5H64.996   c-5.521,0-10,4.477-10,10V236c0,5.523,4.479,10,10,10H153.5z M232.002,226H163.5v-40.002h68.502V226z M74.996,185.999H143.5V226   H74.996V185.999z" style="fill:#000001;"/><path d="M282,186.235c5.523,0,10-4.478,10-10v-0.236c0-5.523-4.477-10-10-10c-5.522,0-10,4.477-10,10v0.236   C272,181.757,276.478,186.235,282,186.235z" style="fill:#000001;"/></g><g/><g/><g/><g/><g/><g/><g/><g/><g/><g/><g/><g/><g/><g/><g/></svg>